<svg id="Слой_1" data-name="Слой 1" xmlns="http://www.w3.org/2000/svg" viewBox="0 0 155.55 156.19"><defs><style>.cls-1{fill:#1a1a1a;}.cls-2{fill:#07f;}</style></defs><path class="cls-1" d="M13.94,58.13A4.93,4.93,0,0,1,17,60a4.08,4.08,0,0,1,.37,3.42,4.58,4.58,0,0,1-1.93,3,4.36,4.36,0,0,1-3.42.38l-.16,0,.68-2.77a4.06,4.06,0,0,0,.7.09,1.84,1.84,0,0,0,.67-.09,1.5,1.5,0,0,0,.57-.38,1.62,1.62,0,0,0,.35-.72,1.29,1.29,0,0,0-.22-1.25A2.12,2.12,0,0,0,13.5,61l-8-2,.68-2.77Z"/><path class="cls-1" d="M18.57,52.67l1.53,1.56L18.78,57,9.67,47.28,11,44.53l13.28,1-1.33,2.8-2.17-.21Zm-1.93-1.89,1.42-3-2.46-.26-2.47-.25Z"/><path class="cls-1" d="M18.08,32.91l6.51,1-2.23-6.17,2.09-2.54L34,33l-1.81,2.21L25.87,30,28,36l-.75.92L21,36l6.35,5.22-1.82,2.2-9.58-7.87Z"/><path class="cls-1" d="M36.83,30.68l-7.45-9.92,4.67-3.5a6,6,0,0,1,1.25-.74,3.46,3.46,0,0,1,1.3-.3,2.74,2.74,0,0,1,1.27.29,3.36,3.36,0,0,1,1.16,1,3.21,3.21,0,0,1,.6,1.32,2.48,2.48,0,0,1-.15,1.41,2.74,2.74,0,0,1,1.77.07,3.88,3.88,0,0,1,2.22,3A3.52,3.52,0,0,1,43.18,25a5.24,5.24,0,0,1-1,1.47,11.37,11.37,0,0,1-1.37,1.24Zm-.6-8.91a3.19,3.19,0,0,0,1-1.07,1.15,1.15,0,0,0-.6-1.48.89.89,0,0,0-.51,0,1.59,1.59,0,0,0-.52.2q-.27.16-.54.36l-1.82,1.37L34.62,23Zm1.34,5.13,1.72-1.29A8.92,8.92,0,0,0,40,25a3.15,3.15,0,0,0,.48-.6,1.17,1.17,0,0,0,.15-.63,1.27,1.27,0,0,0-.28-.67,1,1,0,0,0-1.08-.42,2.11,2.11,0,0,0-.61.26c-.21.13-.43.28-.64.44l-2,1.48Z"/><path class="cls-1" d="M49,14.43l.21-2.94c.07-1,.14-2,.22-2.94l2.93-1.36-1,9,2,4.19-2.59,1.2-1.94-4.18-7.59-5.07,3-1.39Z"/><path class="cls-1" d="M62.16,14.67,68,13.28l.6,2.51-8.63,2L57.11,5.76l2.78-.66Z"/><path class="cls-1" d="M87.27,15.82l-2.84-.34L85.88,3.16l2.84.34Z"/><path class="cls-1" d="M97.28,5.13l3.12,9,2.2-7.36,2.74.82-3.55,11.89-2.57-.77L96,9.75l-2.18,7.31-2.74-.82L94.66,4.35Z"/><path class="cls-1" d="M113.78,11.55l1,9.42,3.85-6.63,2.47,1.43L114.82,26.5l-2.32-1.35-1-9.41-3.83,6.59-2.46-1.43,6.23-10.73Z"/><path class="cls-1" d="M130.47,23.46A7,7,0,0,1,132,25.55a5.77,5.77,0,0,1,.54,2.28,5.67,5.67,0,0,1-.47,2.3,7,7,0,0,1-1.46,2.17,7.31,7.31,0,0,1-2.09,1.57,6,6,0,0,1-2.31.6,5.6,5.6,0,0,1-2.34-.39,6.55,6.55,0,0,1-2.2-1.46,6.82,6.82,0,0,1-1.56-2.13,5.47,5.47,0,0,1,0-4.59,7.36,7.36,0,0,1,1.46-2.16,7.08,7.08,0,0,1,2.1-1.56,5.85,5.85,0,0,1,2.3-.59,5.57,5.57,0,0,1,2.32.42A6.75,6.75,0,0,1,130.47,23.46Zm-6.77,2.28a4.79,4.79,0,0,0-.81,1.15,3.48,3.48,0,0,0-.37,1.28,3,3,0,0,0,.18,1.32,3.47,3.47,0,0,0,.87,1.28,3.17,3.17,0,0,0,1.27.77,2.93,2.93,0,0,0,1.31.09,3.67,3.67,0,0,0,1.26-.45,4.61,4.61,0,0,0,1.07-.85,4.8,4.8,0,0,0,.79-1.1,3.48,3.48,0,0,0,.4-1.27,3,3,0,0,0-1-2.6,3.4,3.4,0,0,0-1.29-.8,3.2,3.2,0,0,0-1.33-.11,3.67,3.67,0,0,0-1.25.44A5,5,0,0,0,123.7,25.74Z"/><path class="cls-1" d="M142.65,38.62l1.74,2.57-13,2.94-1.61-2.38,7.57-10.94,1.76,2.6L133.6,41Z"/><path class="cls-1" d="M137.64,51.2l-2.19.08-1.16-2.86,13.33-.17,1.15,2.82-9.66,9.16-1.17-2.87,1.62-1.46Zm2.7-.16,1.26,3.08,1.85-1.64,1.85-1.65Z"/><path class="cls-1" d="M148.75,58.81l2.56-.51,2,10.23-2.56.51-.73-3.72-9.61,1.91-.56-2.8,9.61-1.91Z"/><path class="cls-1" d="M141.36,76.52l-.13-2.85,12.39-.6.13,2.86Z"/><path class="cls-1" d="M153.36,87.45a6.85,6.85,0,0,1-.75,2.49,5.49,5.49,0,0,1-1.51,1.79,5.65,5.65,0,0,1-2.13,1,7.24,7.24,0,0,1-2.61.13,7.53,7.53,0,0,1-2.5-.75A6.25,6.25,0,0,1,142,90.62a5.68,5.68,0,0,1-1.08-2.12,6.54,6.54,0,0,1-.13-2.63,6.77,6.77,0,0,1,.77-2.53,5.66,5.66,0,0,1,1.54-1.78,5.75,5.75,0,0,1,2.14-1,7.22,7.22,0,0,1,2.6-.11,7,7,0,0,1,2.51.75,5.92,5.92,0,0,1,1.84,1.5,5.55,5.55,0,0,1,1,2.12A7,7,0,0,1,153.36,87.45Zm-5.87-4.08a5,5,0,0,0-1.4,0,3.63,3.63,0,0,0-1.25.47,3.11,3.11,0,0,0-1,.93,3.46,3.46,0,0,0-.51,1.46,3.11,3.11,0,0,0,.13,1.48,3.07,3.07,0,0,0,.71,1.11,3.66,3.66,0,0,0,1.11.74,5,5,0,0,0,2.68.33,3.32,3.32,0,0,0,1.25-.43,3,3,0,0,0,1.49-2.36,3.26,3.26,0,0,0-.13-1.52,2.92,2.92,0,0,0-.7-1.13,3.55,3.55,0,0,0-1.1-.74A4.7,4.7,0,0,0,147.49,83.37Z"/><path class="cls-1" d="M150,101.92l-9.13,2.51,7.19,2.69-1,2.67-11.61-4.35.94-2.51,9.1-2.58-7.14-2.67,1-2.67L151,99.36Z"/><path class="cls-1" d="M129.61,126.48,126.06,130l3.51,3.55-2,2-8.71-8.83,2-2,3.4,3.44,3.56-3.5-3.4-3.44,2-2,8.71,8.83-2,2Z"/><path class="cls-1" d="M113.31,130.57l2.34-1.63,7.11,10.16-2.34,1.64Z"/><path class="cls-1" d="M110.73,139.39a5.8,5.8,0,0,0-.76-1.18,3.25,3.25,0,0,0-1-.83,2.8,2.8,0,0,0-1.27-.31,3.33,3.33,0,0,0-1.48.37,3.74,3.74,0,0,0-.79.49,2.5,2.5,0,0,0-.58.64,2,2,0,0,0-.2,1.69l2.74-1.3,1,2.13L103,143.64c-.2-.42-.39-.84-.56-1.26a11,11,0,0,1-.41-1.27,6.34,6.34,0,0,1-.17-1.29,4.93,4.93,0,0,1,.15-1.31,4.8,4.8,0,0,1,1.08-2,6.25,6.25,0,0,1,2-1.49,7.09,7.09,0,0,1,2.54-.7,5.28,5.28,0,0,1,2.29.34,5.36,5.36,0,0,1,2,1.29,7.79,7.79,0,0,1,1.48,2.15,7.9,7.9,0,0,1,.75,2.55,5.45,5.45,0,0,1-.22,2.33,5.2,5.2,0,0,1-1.19,2,6.85,6.85,0,0,1-2.15,1.52,6.77,6.77,0,0,1-1.87.59,5.1,5.1,0,0,1-1.83,0,4.42,4.42,0,0,1-1.67-.72,5,5,0,0,1-1.37-1.49l2.53-1.2a1.94,1.94,0,0,0,1.34.81,3.09,3.09,0,0,0,1.73-.32,3.25,3.25,0,0,0,1.2-.94,2.82,2.82,0,0,0,.53-1.19,3.61,3.61,0,0,0,0-1.31A6,6,0,0,0,110.73,139.39Z"/><path class="cls-1" d="M96,146.33l-4.88,1.07,1.07,4.88-2.79.61-2.66-12.11,2.79-.62,1,4.73,4.88-1.07-1-4.73,2.79-.61,2.66,12.11-2.79.62Z"/><path class="cls-1" d="M66.81,146.41a5.72,5.72,0,0,0,.11-1.37,3.64,3.64,0,0,0-.3-1.28,2.77,2.77,0,0,0-.78-1,3.44,3.44,0,0,0-3.17-.52,2.16,2.16,0,0,0-1.13,1.15l-2.69-.57A4.54,4.54,0,0,1,59.8,141a4.4,4.4,0,0,1,1.47-1.11,5,5,0,0,1,1.82-.48,6.91,6.91,0,0,1,2,.13,6.84,6.84,0,0,1,2.43,1,5.28,5.28,0,0,1,2.34,3.85,7.66,7.66,0,0,1-.14,2.63,7.29,7.29,0,0,1-.94,2.43,5.68,5.68,0,0,1-1.59,1.71A5.19,5.19,0,0,1,65,152a6.7,6.7,0,0,1-2.59-.07,7.34,7.34,0,0,1-1.88-.67,5.17,5.17,0,0,1-1.42-1.14,4.54,4.54,0,0,1-.86-1.61,5.17,5.17,0,0,1-.13-2.07l2.65.56a2.4,2.4,0,0,0,.56,1.52,2.88,2.88,0,0,0,1.6.83,3.12,3.12,0,0,0,1.49,0,2.82,2.82,0,0,0,1.12-.6,3.6,3.6,0,0,0,.78-1.05A5.29,5.29,0,0,0,66.81,146.41Z"/><path class="cls-1" d="M46.45,146.57a7,7,0,0,1-2.14-1.5,5.39,5.39,0,0,1-1.23-2,5.49,5.49,0,0,1-.29-2.33,7.22,7.22,0,0,1,.69-2.52A7.3,7.3,0,0,1,45,136.09a5.69,5.69,0,0,1,2-1.31,5.62,5.62,0,0,1,2.35-.38,6.72,6.72,0,0,1,2.55.69A7.14,7.14,0,0,1,54,136.61,5.55,5.55,0,0,1,55.5,141a7.23,7.23,0,0,1-.7,2.51,7,7,0,0,1-1.5,2.15,5.87,5.87,0,0,1-2,1.29,5.69,5.69,0,0,1-2.34.34A7.2,7.2,0,0,1,46.45,146.57Zm5.69-4.32a4.71,4.71,0,0,0,.41-1.34,3.29,3.29,0,0,0-.06-1.33,3.06,3.06,0,0,0-.59-1.2,3.51,3.51,0,0,0-1.22-.94,3,3,0,0,0-2.73,0,3.6,3.6,0,0,0-1,.83,4.68,4.68,0,0,0-.75,1.14,4.9,4.9,0,0,0-.4,1.3,3.5,3.5,0,0,0,0,1.33,3.27,3.27,0,0,0,.57,1.21,3.09,3.09,0,0,0,1.21.94,3.38,3.38,0,0,0,1.49.34,3,3,0,0,0,1.28-.31,3.56,3.56,0,0,0,1.05-.82A4.42,4.42,0,0,0,52.14,142.25Z"/><path class="cls-1" d="M39.8,131.09,35,127.46l1.56-2,7.06,5.35-7.49,9.89-2.28-1.73Z"/><path class="cls-1" d="M30.58,122.93l-4-4.46,1.92-1.73,5.94,6.58-9.21,8.31-1.91-2.12Z"/><path class="cls-1" d="M11.4,113l2.24-1.36,3.24,5.35,2-1.23-2.75-4.54,2.17-1.32,2.75,4.54,2-1.18-3.24-5.36L22,106.52l4.71,7.79-10.61,6.43Z"/><path class="cls-1" d="M14.06,103.65a5.4,5.4,0,0,0,1.25-.62,3.33,3.33,0,0,0,.94-.93,2.85,2.85,0,0,0,.45-1.23,3.37,3.37,0,0,0-.21-1.52,3.53,3.53,0,0,0-.4-.83,2.43,2.43,0,0,0-.58-.65,1.89,1.89,0,0,0-.75-.37,2,2,0,0,0-.9,0l1,2.86-2.23.78-1.95-5.61c.44-.16.88-.29,1.32-.42a10.52,10.52,0,0,1,1.31-.27,6.19,6.19,0,0,1,1.29,0,4.47,4.47,0,0,1,1.29.29,4.89,4.89,0,0,1,1.86,1.29A6.17,6.17,0,0,1,19,98.55a6.89,6.89,0,0,1,.42,2.6,5.43,5.43,0,0,1-.58,2.25,5.62,5.62,0,0,1-1.49,1.79,8.42,8.42,0,0,1-4.93,1.71,5.58,5.58,0,0,1-2.29-.47A5.37,5.37,0,0,1,8.29,105,7.1,7.1,0,0,1,7,102.72a6.54,6.54,0,0,1-.38-1.91A5.06,5.06,0,0,1,6.87,99a4.53,4.53,0,0,1,.89-1.58,5,5,0,0,1,1.63-1.2l.92,2.65a2,2,0,0,0-1,1.24,3.07,3.07,0,0,0,.13,1.75,3.2,3.2,0,0,0,.8,1.3,2.72,2.72,0,0,0,1.13.66,3.74,3.74,0,0,0,1.3.13A5.51,5.51,0,0,0,14.06,103.65Z"/><path class="cls-1" d="M3.06,82.76l2.59-.33.78,6.21,2.37-.3-.66-5.27,2.52-.31L11.32,88l2.28-.29-.78-6.21,2.55-.32,1.14,9L4.2,91.8Z"/><circle class="cls-2" cx="91.39" cy="35.03" r="4.44"/><circle class="cls-2" cx="79.95" cy="78.65" r="7.5"/><path class="cls-2" d="M80.44,34.91h0a2.71,2.71,0,0,1-2.39,2.68,39.34,39.34,0,0,0-12.46,3.72A42,42,0,0,0,44.31,63.74,37.54,37.54,0,0,0,45.77,93.9a35.82,35.82,0,0,0,16.44,16.61,2.82,2.82,0,0,1,1.59,3.22A2.68,2.68,0,0,1,60,115.44,41.14,41.14,0,0,1,40.91,96.26,42.86,42.86,0,0,1,39.27,61.8a47.45,47.45,0,0,1,24-25.35,45,45,0,0,1,14.18-4.23A2.7,2.7,0,0,1,80.44,34.91Z"/><path class="cls-2" d="M87.84,118.52a2.7,2.7,0,0,1-.66-5.32,36.39,36.39,0,0,0,6.95-2.53A31.94,31.94,0,0,0,108.93,68,28.15,28.15,0,0,0,71.38,55a24.48,24.48,0,0,0-7,5,2.7,2.7,0,1,1-3.88-3.75A30,30,0,0,1,69,50.14a33.56,33.56,0,0,1,44.77,15.54,37.36,37.36,0,0,1-17.3,49.85,42.63,42.63,0,0,1-8,2.91A3.14,3.14,0,0,1,87.84,118.52Z"/><path class="cls-2" d="M79.5,105.66A27.16,27.16,0,0,1,55.06,90.39,31.26,31.26,0,0,1,53,84.68a2.7,2.7,0,1,1,5.24-1.32A24.78,24.78,0,0,0,59.93,88a21.74,21.74,0,0,0,29,10,19,19,0,0,0,8.81-25.4l-.07-.13a2.7,2.7,0,1,1,4.72-2.62,5.21,5.21,0,0,1,.24.47A24.39,24.39,0,0,1,91.27,103,26.89,26.89,0,0,1,79.5,105.66Z"/><circle class="cls-2" cx="56.06" cy="70.35" r="4.44"/><circle class="cls-2" cx="74.16" cy="117.01" r="4.44"/></svg>