<svg id="Слой_1" data-name="Слой 1" xmlns="http://www.w3.org/2000/svg" viewBox="0 0 235.49 69.53"><defs><style>.cls-1{fill:#1a1a1a;}.cls-2{fill:#07f;}</style></defs><path class="cls-1" d="M93.31,12.72A8.3,8.3,0,0,1,93,15a3.81,3.81,0,0,1-1,1.65,4,4,0,0,1-1.52.94,5.54,5.54,0,0,1-2.16.3,5,5,0,0,1-3.61-1.28,4.19,4.19,0,0,1-1-1.54A5.09,5.09,0,0,1,83.5,13h2.92a2.94,2.94,0,0,0,.43,1.65,1.75,1.75,0,0,0,1.56.66A1.69,1.69,0,0,0,90,14.72a2.89,2.89,0,0,0,.44-1.66V3.64h2.9Z"/><path class="cls-1" d="M99,15.09l-1,2.7H94.79l5.48-14.15h3.28l5.39,14.15h-3.18l-1-2.7Zm.84-2.55h4.11l-2-5.84Z"/><path class="cls-1" d="M113.86,3.64l4.24,6.66,4.21-6.66h3.08V17.79h-2.88V8l-3.81,6.1h-1.3L113.58,8v9.75h-2.86V3.64Z"/><path class="cls-1" d="M128.65,17.79V3.64h6.28a7.81,7.81,0,0,1,1.8.2,3.36,3.36,0,0,1,1.45.72A3.3,3.3,0,0,1,139,5.61a3.2,3.2,0,0,1,.35,1.57A3.64,3.64,0,0,1,139,8.92a3,3,0,0,1-1.25,1.28,2.87,2.87,0,0,1,1.06.54,2.84,2.84,0,0,1,.71.84,3.61,3.61,0,0,1,.39,1,4.44,4.44,0,0,1,.1,1.16,3.6,3.6,0,0,1-.51,1.76,3.77,3.77,0,0,1-1.23,1.31,4.49,4.49,0,0,1-2,.78,14.21,14.21,0,0,1-2.14.16Zm5.46-8.41c.29,0,.58,0,.88-.05a2,2,0,0,0,.82-.27,1.74,1.74,0,0,0,.54-.54,1.6,1.6,0,0,0,.23-.8,1.33,1.33,0,0,0-.16-.78,1.37,1.37,0,0,0-.43-.46,1.65,1.65,0,0,0-.74-.23c-.28,0-.57,0-.86,0h-2.84V9.38Zm-2.56,5.86h2.64c.38,0,.79,0,1.23-.07a2.28,2.28,0,0,0,1.1-.41,1.76,1.76,0,0,0,.46-.55,1.73,1.73,0,0,0,.18-.83,1.37,1.37,0,0,0-.2-.78,1.25,1.25,0,0,0-.49-.48,1.61,1.61,0,0,0-.77-.26,8.7,8.7,0,0,0-.89,0l-3.26,0Z"/><path class="cls-1" d="M151.08,3.64h3.27l-5.23,8.86v5.29h-2.9V12.54l-5.3-8.9h3.34l3.44,6.12Z"/><path class="cls-1" d="M159.05,15.24H166v2.55h-9.82V3.64h2.88Z"/><path class="cls-1" d="M87.27,41.78H84.38V27.63h2.89Z"/><path class="cls-1" d="M93.33,27.63l6.72,9.47V27.63h2.84V41.78h-2.78l-6.72-9.44v9.44H90.55V27.63Z"/><path class="cls-1" d="M108.94,27.63l6.72,9.47V27.63h2.84V41.78h-2.78L109,32.34v9.44h-2.84V27.63Z"/><path class="cls-1" d="M128,27.45a7.75,7.75,0,0,1,2.92.52,6,6,0,0,1,2.2,1.47,6.44,6.44,0,0,1,1.38,2.27,8.42,8.42,0,0,1,.48,2.91,8.52,8.52,0,0,1-.48,2.9,6.75,6.75,0,0,1-1.38,2.32,6.34,6.34,0,0,1-2.21,1.53,8.38,8.38,0,0,1-5.92,0,6.4,6.4,0,0,1-2.18-1.51,6.69,6.69,0,0,1-1.36-2.28,8.61,8.61,0,0,1-.47-2.88,8.52,8.52,0,0,1,.49-2.92,6.72,6.72,0,0,1,1.4-2.29A6.3,6.3,0,0,1,125.09,28,7.56,7.56,0,0,1,128,27.45Zm-4,7.19a6.22,6.22,0,0,0,.25,1.75,4.62,4.62,0,0,0,.74,1.47,3.7,3.7,0,0,0,1.25,1,4,4,0,0,0,1.78.41,3.77,3.77,0,0,0,1.74-.35,3.51,3.51,0,0,0,1.26-1,4.82,4.82,0,0,0,.76-1.5,6.06,6.06,0,0,0,.26-1.77,6.31,6.31,0,0,0-.25-1.74,4.78,4.78,0,0,0-.74-1.48,3.4,3.4,0,0,0-1.25-1A3.86,3.86,0,0,0,128,30a3.8,3.8,0,0,0-1.76.38,3.59,3.59,0,0,0-1.26,1,4.49,4.49,0,0,0-.75,1.46A6.33,6.33,0,0,0,124,34.64Z"/><path class="cls-1" d="M146.26,27.63h3.14L144,41.78H140.9l-5.37-14.15h3.21l3.78,10.69Z"/><path class="cls-1" d="M152.9,39.08l-1,2.7h-3.16l5.47-14.15h3.28l5.4,14.15h-3.18l-1-2.7Zm.83-2.56h4.12l-2-5.83Z"/><path class="cls-1" d="M162.27,30.21V27.63H174v2.58h-4.43V41.78h-2.9V30.21Z"/><path class="cls-1" d="M178.84,41.78h-2.9V27.63h2.9Z"/><path class="cls-1" d="M188.35,27.45a7.71,7.71,0,0,1,2.92.52,5.92,5.92,0,0,1,2.2,1.47,6.44,6.44,0,0,1,1.38,2.27,8.42,8.42,0,0,1,.48,2.91,8.52,8.52,0,0,1-.48,2.9,6.75,6.75,0,0,1-1.38,2.32,6.34,6.34,0,0,1-2.21,1.53,8.35,8.35,0,0,1-5.91,0,6.31,6.31,0,0,1-2.18-1.51,6.38,6.38,0,0,1-1.36-2.28,9,9,0,0,1,0-5.8,6.42,6.42,0,0,1,1.4-2.29A6.12,6.12,0,0,1,185.44,28,7.47,7.47,0,0,1,188.35,27.45Zm-4,7.19a5.88,5.88,0,0,0,.25,1.75,4.24,4.24,0,0,0,.74,1.47,3.52,3.52,0,0,0,1.25,1,3.92,3.92,0,0,0,1.77.41,3.71,3.71,0,0,0,1.74-.35,3.51,3.51,0,0,0,1.26-1,4.42,4.42,0,0,0,.76-1.5,6.06,6.06,0,0,0,.26-1.77,6,6,0,0,0-.25-1.74,4.57,4.57,0,0,0-.74-1.48,3.32,3.32,0,0,0-1.25-1,3.83,3.83,0,0,0-1.78-.38,3.76,3.76,0,0,0-1.75.38,3.51,3.51,0,0,0-1.26,1,4.13,4.13,0,0,0-.75,1.46A6,6,0,0,0,184.32,34.64Z"/><path class="cls-1" d="M200.61,27.63l6.71,9.47V27.63h2.84V41.78h-2.78l-6.71-9.44v9.44h-2.84V27.63Z"/><path class="cls-1" d="M87.27,57.49h6.26V51.61h2.9V65.76h-2.9V60.07H87.27v5.69H84.38V51.61h2.89Z"/><path class="cls-1" d="M102.61,65.76h-2.9V51.61h2.9Z"/><path class="cls-1" d="M108.1,58.67a6.72,6.72,0,0,0,.23,1.75,4.23,4.23,0,0,0,.71,1.46,3.65,3.65,0,0,0,1.22,1,4.11,4.11,0,0,0,1.76.4,4.45,4.45,0,0,0,1.21-.14,3.38,3.38,0,0,0,1-.49,2.8,2.8,0,0,0,.75-.85,3.11,3.11,0,0,0,.35-1.22h-3.56V58.25h6.4c0,.51,0,1,0,1.56a10.09,10.09,0,0,1-.21,1.56,8,8,0,0,1-.5,1.47,4.78,4.78,0,0,1-.87,1.27,5.63,5.63,0,0,1-1.9,1.28,6.85,6.85,0,0,1-2.74.49,7.57,7.57,0,0,1-3-.53,5.94,5.94,0,0,1-2.16-1.48,6.45,6.45,0,0,1-1.32-2.28,9,9,0,0,1-.45-2.9,9.24,9.24,0,0,1,.45-3,6.34,6.34,0,0,1,1.33-2.29A6.2,6.2,0,0,1,109.05,52a8.3,8.3,0,0,1,5.13-.23,5.74,5.74,0,0,1,1.84.9,5,5,0,0,1,1.32,1.5,5.12,5.12,0,0,1,.62,2.1h-2.8a2.56,2.56,0,0,0-1.11-1.64,3.56,3.56,0,0,0-2.17-.58,3.93,3.93,0,0,0-1.72.43,3.45,3.45,0,0,0-1.18,1,4.29,4.29,0,0,0-.67,1.47A7,7,0,0,0,108.1,58.67Z"/><path class="cls-1" d="M123.63,57.49h6.26V51.61h2.9V65.76h-2.9V60.07h-6.26v5.69h-2.9V51.61h2.9Z"/><path class="cls-1" d="M143.94,58.65a6.7,6.7,0,0,0,.23,1.74,4.5,4.5,0,0,0,.7,1.48,3.54,3.54,0,0,0,1.2,1,4.16,4.16,0,0,0,3.86-.18,2.45,2.45,0,0,0,1-1.59h2.79a4.78,4.78,0,0,1-.62,2.07,4.73,4.73,0,0,1-1.33,1.48,6,6,0,0,1-1.86.9,7.82,7.82,0,0,1-2.16.3,7.43,7.43,0,0,1-2.93-.54,6.1,6.1,0,0,1-2.14-1.49,6.28,6.28,0,0,1-1.31-2.28,9.23,9.23,0,0,1-.44-2.9,8.9,8.9,0,0,1,.45-2.87,6.41,6.41,0,0,1,1.33-2.3A6.3,6.3,0,0,1,144.89,52a7.43,7.43,0,0,1,2.93-.55,8.51,8.51,0,0,1,2.18.28,5.87,5.87,0,0,1,1.82.86,4.58,4.58,0,0,1,1.3,1.49,5.47,5.47,0,0,1,.63,2.17H151a2.67,2.67,0,0,0-1-1.62,3.48,3.48,0,0,0-2.1-.6,3.77,3.77,0,0,0-1.75.37,3.28,3.28,0,0,0-1.2,1,4.46,4.46,0,0,0-.7,1.49A6.93,6.93,0,0,0,143.94,58.65Z"/><path class="cls-1" d="M162.57,51.43a8,8,0,0,1,2.92.52,6.25,6.25,0,0,1,2.2,1.47,6.42,6.42,0,0,1,1.37,2.27,8.48,8.48,0,0,1,.48,2.92,8.57,8.57,0,0,1-.48,2.9,6.82,6.82,0,0,1-1.37,2.32,6.19,6.19,0,0,1-2.21,1.52,7.25,7.25,0,0,1-3,.53,7.39,7.39,0,0,1-2.95-.55,6.15,6.15,0,0,1-2.18-1.5A6.69,6.69,0,0,1,156,61.55a9,9,0,0,1,0-5.81,6.57,6.57,0,0,1,1.4-2.29A6.34,6.34,0,0,1,159.65,52,7.75,7.75,0,0,1,162.57,51.43Zm-4,7.2a6,6,0,0,0,.25,1.75,4.62,4.62,0,0,0,.74,1.47,3.72,3.72,0,0,0,1.25,1,4.13,4.13,0,0,0,1.78.41,3.9,3.9,0,0,0,1.74-.35,3.69,3.69,0,0,0,1.26-1,5,5,0,0,0,.76-1.5,6.16,6.16,0,0,0,.26-1.77,6.31,6.31,0,0,0-.25-1.74,4.83,4.83,0,0,0-.74-1.49,3.59,3.59,0,0,0-1.25-1,4,4,0,0,0-1.78-.38,3.93,3.93,0,0,0-1.76.38,3.51,3.51,0,0,0-1.26,1,4.64,4.64,0,0,0-.75,1.47A5.92,5.92,0,0,0,158.53,58.63Z"/><path class="cls-1" d="M174.92,63.21h6.94v2.55H172V51.61h2.88Z"/><path class="cls-1" d="M187.07,63.21H194v2.55H184.2V51.61h2.87Z"/><path class="cls-1" d="M206.46,51.61v2.58h-7.21v3.3h6.29v2.58h-6.29v3.14h7.21v2.55H196.35V51.61Z"/><path class="cls-1" d="M211.18,58.67a6.32,6.32,0,0,0,.23,1.75,4.23,4.23,0,0,0,.71,1.46,3.56,3.56,0,0,0,1.22,1,4.11,4.11,0,0,0,1.76.4,4.5,4.5,0,0,0,1.21-.14,3.22,3.22,0,0,0,1-.49,2.56,2.56,0,0,0,.75-.85,3,3,0,0,0,.35-1.22H214.9V58.25h6.39c0,.51,0,1,0,1.56a8.13,8.13,0,0,1-.21,1.56,7.29,7.29,0,0,1-.5,1.47,4.78,4.78,0,0,1-.87,1.27,5.53,5.53,0,0,1-1.9,1.28,6.83,6.83,0,0,1-2.73.49,7.57,7.57,0,0,1-2.95-.53A5.94,5.94,0,0,1,210,63.87a6.45,6.45,0,0,1-1.32-2.28,9,9,0,0,1-.45-2.9,9.24,9.24,0,0,1,.45-3,6,6,0,0,1,3.5-3.77,8.27,8.27,0,0,1,5.12-.23,5.54,5.54,0,0,1,1.84.9,4.77,4.77,0,0,1,1.32,1.5,4.83,4.83,0,0,1,.62,2.1h-2.8a2.48,2.48,0,0,0-1.11-1.64A3.51,3.51,0,0,0,215,54a3.93,3.93,0,0,0-1.72.43,3.36,3.36,0,0,0-1.18,1,4.29,4.29,0,0,0-.67,1.47A7,7,0,0,0,211.18,58.67Z"/><path class="cls-1" d="M233.92,51.61v2.58h-7.21v3.3H233v2.58h-6.29v3.14h7.21v2.55H223.81V51.61Z"/><circle class="cls-2" cx="43.31" cy="3.64" r="3.37"/><circle class="cls-2" cx="34.62" cy="36.76" r="5.7"/><path class="cls-2" d="M35,3.55h0a2,2,0,0,1-1.82,2,29.94,29.94,0,0,0-9.45,2.83,31.9,31.9,0,0,0-16.16,17,28.48,28.48,0,0,0,1.11,22.9A27.19,27.19,0,0,0,21.15,61a2.15,2.15,0,0,1,1.21,2.45,2,2,0,0,1-2,1.51,2,2,0,0,1-.89-.21A31.25,31.25,0,0,1,5,50.13,32.54,32.54,0,0,1,3.73,24,36,36,0,0,1,21.93,4.72,33.88,33.88,0,0,1,32.7,1.51,2,2,0,0,1,35,3.55Z"/><path class="cls-2" d="M40.61,67a2,2,0,0,1-.5-4,27.84,27.84,0,0,0,5.28-1.93A24.26,24.26,0,0,0,56.63,28.7a21.4,21.4,0,0,0-28.52-9.9,18.7,18.7,0,0,0-5.28,3.82,2.05,2.05,0,0,1-2.95-2.85,22.67,22.67,0,0,1,6.44-4.65,25.48,25.48,0,0,1,34,11.79A28.37,28.37,0,0,1,47.17,64.76,31.58,31.58,0,0,1,41.12,67,2.22,2.22,0,0,1,40.61,67Z"/><path class="cls-2" d="M34.27,57.27a20.61,20.61,0,0,1-18.55-11.6,22.65,22.65,0,0,1-1.58-4.33,2.05,2.05,0,0,1,4-1,18.16,18.16,0,0,0,1.3,3.55,16.49,16.49,0,0,0,22,7.63,14.43,14.43,0,0,0,6.69-19.28l0-.11a2,2,0,1,1,3.58-2c.07.12.13.24.19.36a18.54,18.54,0,0,1-8.62,24.7A20.46,20.46,0,0,1,34.27,57.27Z"/><circle class="cls-2" cx="16.48" cy="30.46" r="3.37"/><circle class="cls-2" cx="30.22" cy="65.88" r="3.37"/></svg>