<?xml version="1.0" encoding="UTF-8"?>
<svg id="Layer_1" data-name="Layer 1" xmlns="http://www.w3.org/2000/svg" viewBox="0 0 683.79 84.51">
  <defs>
    <style>
      .cls-1 {
        fill: #f5a467;
      }

      .cls-2 {
        fill: #1f2150;
      }
    </style>
  </defs>
  <g>
    <path class="cls-2" d="m0,58.99v-23.63h8.89c1.78,0,3.33.27,4.63.82,1.3.55,2.32,1.41,3.04,2.59s1.09,2.73,1.09,4.65-.4,3.35-1.2,4.58c-.8,1.23-1.89,2.14-3.27,2.76-1.38.61-2.96.92-4.75.92h-4.25v7.32H0Zm4.18-11.06h4.18c1.54,0,2.77-.37,3.71-1.1.94-.74,1.4-1.89,1.4-3.48,0-1.38-.39-2.42-1.17-3.13-.78-.7-1.98-1.05-3.61-1.05h-4.51v8.76Z"/>
    <path class="cls-2" d="m32.59,59.26c-2.43,0-4.49-.51-6.2-1.54-1.7-1.03-3.01-2.45-3.91-4.28-.9-1.83-1.35-3.91-1.35-6.25s.46-4.48,1.37-6.3c.91-1.82,2.23-3.24,3.94-4.28s3.79-1.55,6.22-1.55,4.49.51,6.2,1.54c1.7,1.03,3.01,2.45,3.93,4.26.91,1.82,1.37,3.91,1.37,6.27s-.45,4.42-1.36,6.25c-.9,1.83-2.22,3.26-3.94,4.31-1.73,1.05-3.82,1.57-6.27,1.57Zm.07-3.88c1.69,0,3.07-.39,4.14-1.17,1.07-.78,1.86-1.79,2.36-3.04.5-1.25.75-2.58.75-3.98,0-1.07-.14-2.1-.42-3.08-.28-.98-.71-1.86-1.3-2.64-.59-.78-1.34-1.4-2.26-1.85s-2.01-.68-3.27-.68c-1.67,0-3.05.39-4.13,1.17-1.08.78-1.88,1.79-2.39,3.04-.51,1.25-.77,2.6-.77,4.05s.26,2.76.77,4.01c.51,1.25,1.31,2.26,2.39,3.03,1.08.77,2.46,1.15,4.13,1.15Z"/>
    <path class="cls-2" d="m52.38,58.99l-6.02-23.63h4.68l4.55,19.29,4.48-19.29h5.68l4.48,19.29,4.48-19.29h4.45l-5.98,23.63h-5.88l-4.45-18.92-4.48,18.92h-5.98Z"/>
    <path class="cls-2" d="m82.89,58.99v-23.63h16.68v3.81h-12.5v6.22h10.86v3.74h-10.86v6.05h12.5v3.81h-16.68Z"/>
    <path class="cls-2" d="m104.39,58.99v-23.63h9.32c1.2,0,2.34.12,3.41.35,1.07.23,2.02.63,2.84,1.2s1.47,1.34,1.94,2.32.7,2.2.7,3.64c0,1.2-.21,2.26-.64,3.18-.42.91-1.01,1.68-1.75,2.31-.75.62-1.63,1.1-2.66,1.44l5.18,9.19h-4.68l-4.65-8.52h-4.85v8.52h-4.18Zm4.18-12.23h4.58c.76,0,1.45-.06,2.09-.18s1.19-.33,1.67-.62c.48-.29.85-.69,1.1-1.19.26-.5.4-1.14.42-1.92,0-.94-.2-1.67-.58-2.21-.39-.54-.95-.91-1.67-1.14s-1.59-.34-2.59-.34h-5.01v7.59Z"/>
    <path class="cls-2" d="m127.91,58.99v-23.63h16.68v3.81h-12.5v6.22h10.86v3.74h-10.86v6.05h12.5v3.81h-16.68Z"/>
    <path class="cls-2" d="m149.41,58.99v-23.63h8.72c2.47,0,4.57.47,6.28,1.42,1.71.95,3.03,2.31,3.93,4.08.9,1.77,1.36,3.89,1.36,6.37s-.44,4.52-1.32,6.28c-.88,1.76-2.18,3.12-3.89,4.06-1.72.95-3.82,1.42-6.32,1.42h-8.76Zm4.18-3.81h4.48c1.76,0,3.18-.34,4.26-1.02,1.08-.68,1.87-1.61,2.37-2.81.5-1.19.75-2.58.75-4.16s-.25-2.91-.74-4.11c-.49-1.2-1.28-2.15-2.36-2.86-1.08-.7-2.5-1.05-4.26-1.05h-4.51v16.01Z"/>
    <path class="cls-2" d="m184.63,58.99v-23.63h9.69c1.09,0,2.1.1,3.02.28.93.19,1.73.52,2.41.99.68.47,1.21,1.09,1.59,1.87.38.78.57,1.75.57,2.91,0,1.07-.25,2.04-.74,2.93-.49.88-1.21,1.54-2.17,1.99,1.29.33,2.28.98,2.97,1.92.69.95,1.04,2.18,1.04,3.69,0,1.36-.25,2.49-.75,3.39-.5.9-1.19,1.62-2.07,2.16-.88.54-1.9.92-3.06,1.15-1.16.24-2.4.35-3.71.35h-8.79Zm4.18-13.74h4.41c.69,0,1.31-.07,1.87-.2.56-.13,1.04-.34,1.44-.62.4-.28.71-.62.94-1.04s.33-.92.33-1.52c0-.78-.18-1.37-.53-1.76-.36-.39-.84-.65-1.46-.77s-1.3-.18-2.05-.18h-4.95v6.08Zm0,9.93h4.98c.62,0,1.24-.04,1.84-.13.6-.09,1.15-.24,1.64-.47.49-.22.87-.55,1.15-.99.28-.43.42-1,.42-1.69,0-.62-.11-1.14-.33-1.54-.22-.4-.53-.72-.92-.95-.39-.23-.85-.4-1.39-.5-.53-.1-1.09-.15-1.67-.15h-5.72v6.42Z"/>
    <path class="cls-2" d="m213.82,58.99v-8.82l-8.66-14.81h4.85l5.95,10.83,5.95-10.83h4.75l-8.66,14.77v8.86h-4.18Z"/>
  </g>
  <g>
    <g>
      <polygon class="cls-1" points="314.13 25.67 309.86 33.26 305.58 25.67 309.86 18.07 314.13 25.67"/>
      <path class="cls-2" d="m316.2,65.38c6.09-5.39,10.45-8.08,14.42-10.43,7.67-4.53,11.23-10.73,11.23-17.4-3.56,6.67-7.13,10.87-12.59,14.98-4.68,3.52-9.54,7.21-14.21,11.88-1.03,1.03-5.13,5.13-6.16,6.16-3.3,3.3-6.1,6.69-8.71,10.04.63.41,1.29.78,1.97,1.11,1.86-2.85,4.22-6.07,7.7-10,.42-.48,5.87-5.93,6.35-6.35m-2.66-2.28c9-8.03,12.64-11.34,14.33-13.03,7.57-7.56,13.98-16.34,13.98-24.4,0-4.51-2.17-9.46-3.85-11.15,0,0,.29,1.48.29,3.55,0,7.6,0,15.31-11.94,29.3-1.66,1.95-5.47,6.04-13.95,14.69-.97.99-4.88,4.9-5.87,5.87-4.39,4.31-7.6,7.41-9.96,9.64.56.62,1.17,1.2,1.82,1.74,2.06-2.26,4.98-5.51,9.19-10.23.94-1.06,4.92-5.03,5.97-5.97m11.36-18.3c7.96-11.42,9.82-19.13,9.82-26.73,0-9.2-5.35-15.29-7.27-15.29,1.52,4.37,2.22,9.93,2.22,15.29,0,7.6-1.8,15.57-6.54,23.59-3.79,6.41-8.09,12.64-13.28,17.92-.96.98-4.83,4.84-5.8,5.8-3.11,3.06-6.55,5.81-10.16,8.33.39.75.83,1.46,1.31,2.15,3.47-2.93,6.79-6.13,9.95-9.37.96-.98,4.83-4.85,5.81-5.81,5.03-4.92,9.99-10.21,13.94-15.88m-15.04,26.93c3.48,3.93,5.84,7.15,7.7,10,.68-.33,1.34-.7,1.97-1.11-2.6-3.35-5.41-6.75-8.71-10.04-1.03-1.03-5.13-5.13-6.16-6.16-4.67-4.67-9.53-8.36-14.21-11.88-5.46-4.11-9.03-8.31-12.59-14.98,0,6.67,3.56,12.87,11.23,17.4,3.97,2.35,8.33,5.04,14.42,10.43.48.42,5.93,5.87,6.35,6.35m2.28-2.66c4.21,4.72,7.13,7.97,9.19,10.23.64-.54,1.25-1.12,1.82-1.74-2.36-2.23-5.57-5.33-9.96-9.64-.99-.97-4.9-4.88-5.87-5.87-8.49-8.64-12.29-12.73-13.95-14.69-11.94-13.99-11.94-21.7-11.94-29.3,0-2.07.29-3.55.29-3.55-1.69,1.69-3.85,6.64-3.85,11.15,0,8.06,6.41,16.83,13.98,24.4,1.69,1.69,5.33,5,14.33,13.03,1.06.94,5.03,4.92,5.97,5.97m-3.39-8.39c.98.96,4.85,4.83,5.81,5.81,3.16,3.24,6.48,6.44,9.95,9.37.48-.68.92-1.4,1.31-2.15-3.61-2.52-7.05-5.27-10.16-8.33-.98-.96-4.84-4.83-5.8-5.8-5.19-5.28-9.49-11.51-13.28-17.92-4.74-8.02-6.54-16-6.54-23.59,0-5.36.7-10.92,2.22-15.29-1.92,0-7.27,6.09-7.27,15.29,0,7.6,1.86,15.31,9.82,26.73,3.95,5.67,8.91,10.96,13.94,15.88"/>
    </g>
    <g>
      <path class="cls-2" d="m380.58,41.66h0c-.31-.13-.62-.27-.92-.4-3.6-1.55-6.71-2.89-6.71-6.5s2.9-6.31,7.21-6.31c2.91,0,4.68.76,6.3,2.71l.14.17.02-.22c.16-1.58,0-2.98,0-2.99v-.06s-.06-.02-.06-.02c-.96-.29-3.5-.96-6.4-.96-7.76,0-11.29,4.36-11.29,8.41,0,4.36,2.58,7.71,7.67,9.94.62.27,1.25.52,1.92.79,3.61,1.43,7.34,2.91,7.34,7.01,0,2.77-2.3,6.87-7.25,6.87-3.45,0-6.65-1.35-9.53-4.02l-.14-.13v.19s-.15,1.91-.03,3.35v.05s.05.02.05.02c1.65.95,5.27,1.91,9.65,1.91,8.36,0,11.32-5.02,11.32-9.31,0-5.93-4.8-8.53-9.29-10.5"/>
      <path class="cls-2" d="m409.49,27.07c-5.57,0-8.5.31-11.19.78h-.08s0,.28,0,.28c0,.03.77,3.41.77,8.88v23.51s2.55-.06,4.76-.04c1.46.02,3.28.04,5.88.04,9.22,0,17.54-7.49,17.54-16.69,0-4.5-1.7-8.67-4.8-11.76-3.23-3.22-7.81-5-12.89-5m-6.52,1.84c.34-.09,1.87-.46,4.8-.46,9.21,0,15.16,6.04,15.16,15.38,0,8.84-5.44,15.02-13.24,15.07h-6.44v-21.89c0-5.29-.23-7.66-.28-8.11"/>
      <path class="cls-2" d="m457.41,47.75c0,4.36-.62,7.44-1.88,9.39-1.28,1.98-3.32,2.95-6.22,2.95-6.42,0-9.29-3.81-9.29-12.34v-10.74c0-4.62-.48-8.86-.49-8.9v-.08h-4.55l.03.11s.76,2.91.76,8.87l-.02,10.74c0,9.1,4.36,13.71,12.96,13.71s12.93-4.36,12.93-13.71v-19.73h-4.24v19.73Z"/>
    </g>
    <g>
      <path class="cls-2" d="m507.24,47.75c0,8.4-2.89,12.49-8.82,12.49-6.74,0-10.01-4.09-10.01-12.49v-10.74c0-4.63-.49-8.87-.49-8.91l-.02-.16h-3.93l.06.23s.76,2.91.76,8.85l-.02,10.74c0,9.16,4.39,13.8,13.06,13.8s13.02-4.39,13.02-13.8v-19.82h-3.61v19.82Z"/>
      <path class="cls-2" d="m536.52,55.25v-10.98c0-4.71-3.92-8.4-8.92-8.4-2.67,0-5.21,1.19-7.04,3.27v-2.8h-.18c-1.61,0-4.02.22-4.05.22l-.17.02v.5s.06.05.06.05c.03.03.71.82.71,6.53v16.94h3.63v-19.5c1.48-2.49,3.73-3.91,6.18-3.91,4.14,0,6.15,2.83,6.15,8.66v14.75h4.47l-.1-.25s-.74-1.92-.74-5.11"/>
      <path class="cls-2" d="m541.8,37.05s.76,3.4.76,8.85v14.7h3.62v-23.78h-4.43l.05.22Z"/>
      <path class="cls-2" d="m544.38,27.93c-1.34,0-2.42,1.09-2.42,2.42s1.09,2.42,2.42,2.42,2.42-1.09,2.42-2.42-1.09-2.42-2.42-2.42"/>
      <path class="cls-2" d="m568.49,37.05s.22,1.07,0,2.79c-.2,1.55-.69,3.19-1.61,5.34-3.8,8.85-4.17,9.62-4.44,10.18-.08.18-.16.33-.32.7-.94-2.13-2.88-6.54-4.76-10.9-2.22-5.16-2.64-7.56-2.34-8.05l.18-.28h-5.49l.12.26s1.8,3.98,3.66,8.21c.36.81,1.24,2.86,2.31,5.33,1.52,3.51,3.4,7.88,4.69,10.82l.05.11h1.36l6.95-16.24c2.36-5.52,3.74-8.2,3.76-8.22l.14-.27h-4.29l.05.22Z"/>
      <path class="cls-2" d="m587.02,35.87c-7.08,0-12.84,5.76-12.84,12.85s5.76,12.84,12.84,12.84c6.37,0,9.6-3.55,9.64-3.59l.04-.05v-.06c.09-1.11,0-3.22,0-3.31l-.03-.69-.32.62c-1.04,2.01-4.84,5.76-9.34,5.76-4.81,0-9.04-5.39-9.04-11.52,0-.06,0-.13,0-.19h13.47c3.39-.03,6.03-.74,6.06-.75l.12-.03.04-.4c.07-.68.1-1.02.1-1.96,0-5.24-4.83-9.51-10.76-9.51m-.35,1.32h.07c2.14.02,4,.86,5.37,2.45,1.57,1.81,2.3,4.42,1.96,6.99-.36.13-1.7.57-3.29.57h-12.72c.54-5.91,4.06-10.01,8.61-10.01"/>
      <path class="cls-2" d="m612.83,35.88h-.18c-2.45,0-4.51,1.07-6.15,3.2v-2.73h-.18c-1.61,0-4.02.22-4.05.22l-.17.02v.5s.06.06.06.06c.03.03.71.82.71,6.53v16.94h3.63v-17.18c0-3.61,3.17-5.29,5.3-5.29,1.99,0,3.38,1.11,4.01,2.15l.14.23.16-.22c.04-.05.99-1.35,1.45-3.26l.03-.15-.13-.06c-1.23-.58-2.99-.94-4.62-.97"/>
      <path class="cls-2" d="m629.29,46.45l-.26-.11-.27-.11c-3-1.29-5.17-2.23-5.17-4.84.05-2.62,2.48-4.19,4.8-4.19s4.61,1.49,5.37,2.89l.29.52.06-.59c.11-1.11.01-2.94,0-3.01v-.11s-.11-.05-.11-.05c-1.28-.6-3.12-.97-4.8-.97-5.76,0-8.86,3.1-8.86,6.02,0,3.15,1.66,5.24,5.54,6.99.34.16.7.31,1.05.46,3.06,1.33,6.21,2.7,6.23,5.9,0,1.2-.53,2.47-1.45,3.4-.72.73-2.03,1.59-4.14,1.59-4.45,0-7.48-5.17-7.81-5.76l-.31-.55-.03.63c0,.08-.11,2.07,0,3.31v.05s.03.04.03.04c.02.04,2.56,3.61,8.12,3.61,3.02,0,5.46-.85,7.05-2.46,1.27-1.29,1.95-3.03,1.92-4.9,0-4.24-3.59-6.16-7.27-7.76"/>
      <path class="cls-2" d="m643.1,27.93c-1.34,0-2.42,1.09-2.42,2.42s1.09,2.42,2.42,2.42,2.42-1.09,2.42-2.42-1.09-2.42-2.42-2.42"/>
      <path class="cls-2" d="m640.53,37.05s.76,3.4.76,8.85v14.7h3.62v-23.78h-4.43l.05.22Z"/>
      <path class="cls-2" d="m655.36,31.38l-2.01.84v.12c0,2.47-1.98,4.48-4.42,4.48h-.15l-.23,1.32h.21s1.36.03,2.97.03v13.35c0,6.97,1.49,8.98,4.82,10.86l.07.04.07-.02c1.01-.3,1.64-.81,1.67-.83l.25-.21-.31-.1c-.12-.04-2.95-1.04-2.95-6.02v-16.91c1.45.14,2.35.37,3.3.6l.26.07.06-.14s.3-.71.31-1.76l.26-.26h-4.18v-5.45Z"/>
      <path class="cls-2" d="m679.5,36.83l.05.22s.22,1.07,0,2.79c-.2,1.56-.7,3.2-1.61,5.34-3.8,8.86-4.17,9.63-4.44,10.19-.08.17-.16.33-.32.7-.94-2.13-2.88-6.54-4.76-10.9-2.22-5.16-2.64-7.56-2.34-8.05l.18-.28h-5.49l.12.26s1.81,3.98,3.66,8.21c.35.81,1.22,2.82,2.27,5.25,1.39,3.2,3.09,7.15,4.36,10.06l-.9,2.06c-1.08,2.47-3.88,4.84-6.52,5.51l-.37.09.3.23c.07.05,1.68,1.27,3.67,1.83l.09.03.07-.06c1.8-1.56,3.64-4.54,5.47-8.85l6.9-16.13c2.36-5.52,3.74-8.2,3.76-8.22l.14-.27h-4.29Z"/>
    </g>
  </g>
</svg>