<?xml version="1.0" encoding="UTF-8"?>
<svg id="Layer_1" data-name="Layer 1" xmlns="http://www.w3.org/2000/svg" viewBox="0 0 661.79 141.25">
  <defs>
    <style>
      .cls-1 {
        fill: #f5a467;
      }

      .cls-2 {
        fill: #1f2150;
      }
    </style>
  </defs>
  <g>
    <polygon class="cls-1" points="64.89 40.94 57.24 54.53 49.59 40.94 57.24 27.35 64.89 40.94"/>
    <path class="cls-2" d="m68.59,111.99c10.89-9.64,18.7-14.45,25.8-18.65,13.71-8.1,20.09-19.19,20.09-31.12-6.38,11.93-12.75,19.44-22.52,26.8-8.37,6.3-17.06,12.89-25.42,21.25-1.85,1.85-9.18,9.18-11.03,11.03-5.9,5.9-10.92,11.97-15.58,17.97,1.13.73,2.3,1.39,3.52,1.98,3.34-5.11,7.54-10.85,13.78-17.89.76-.86,10.51-10.61,11.36-11.36m-4.76-4.08c16.11-14.36,22.61-20.29,25.64-23.32,13.54-13.53,25.01-29.24,25.01-43.65,0-8.07-3.88-16.93-6.9-19.95,0,0,.52,2.64.52,6.35,0,13.59,0,27.39-21.36,52.42-2.98,3.49-9.78,10.81-24.96,26.28-1.74,1.77-8.73,8.77-10.51,10.51-7.85,7.71-13.6,13.26-17.82,17.24,1.01,1.11,2.1,2.15,3.25,3.11,3.69-4.05,8.9-9.85,16.44-18.31,1.69-1.89,8.79-9,10.68-10.69m20.33-32.74c14.25-20.44,17.57-34.23,17.57-47.82,0-16.46-9.56-27.35-13-27.35,2.73,7.82,3.98,17.76,3.98,27.35,0,13.59-3.22,27.87-11.7,42.21-6.78,11.47-14.47,22.61-23.77,32.06-1.72,1.75-8.63,8.66-10.38,10.38-5.56,5.47-11.72,10.39-18.18,14.89.69,1.34,1.48,2.62,2.34,3.84,6.21-5.24,12.15-10.97,17.81-16.76,1.72-1.76,8.64-8.68,10.4-10.4,9-8.8,17.88-18.26,24.95-28.41m-26.91,48.18c6.23,7.04,10.44,12.79,13.78,17.89,1.22-.59,2.39-1.25,3.52-1.98-4.66-6-9.67-12.07-15.58-17.97-1.85-1.85-9.18-9.18-11.03-11.03-8.36-8.36-17.06-14.95-25.43-21.25-9.77-7.36-16.15-14.87-22.52-26.8,0,11.93,6.37,23.02,20.09,31.12,7.1,4.2,14.91,9.01,25.8,18.65.86.76,10.6,10.51,11.36,11.36m4.08-4.76c7.54,8.45,12.75,14.26,16.44,18.31,1.15-.96,2.24-2,3.25-3.11-4.22-3.98-9.97-9.53-17.82-17.24-1.77-1.74-8.76-8.73-10.51-10.51-15.18-15.46-21.98-22.78-24.96-26.28C6.37,54.74,6.37,40.94,6.37,27.35c0-3.71.52-6.35.52-6.35-3.02,3.02-6.9,11.87-6.9,19.95,0,14.42,11.47,30.12,25.01,43.65,3.03,3.03,9.53,8.95,25.64,23.32,1.89,1.69,9,8.8,10.68,10.69m-6.07-15.02c1.76,1.72,8.68,8.64,10.4,10.4,5.66,5.79,11.59,11.52,17.8,16.76.87-1.22,1.65-2.5,2.34-3.84-6.46-4.5-12.62-9.42-18.18-14.89-1.75-1.72-8.66-8.63-10.38-10.38-9.29-9.45-16.99-20.59-23.77-32.06-8.49-14.35-11.7-28.62-11.7-42.21,0-9.59,1.25-19.53,3.98-27.35-3.43,0-13,10.89-13,27.35,0,13.59,3.32,27.38,17.57,47.82,7.07,10.14,15.95,19.61,24.95,28.41"/>
  </g>
  <g>
    <g>
      <path class="cls-2" d="m197.9,95.57h0c-.47-.21-.94-.41-1.41-.61-5.51-2.37-10.26-4.42-10.26-9.95s4.43-9.65,11.03-9.65c4.45,0,7.16,1.16,9.64,4.14l.21.26.03-.33c.24-2.42,0-4.56,0-4.58v-.09s-.1-.03-.1-.03c-1.46-.44-5.35-1.47-9.79-1.47-11.87,0-17.27,6.67-17.27,12.86,0,6.68,3.95,11.79,11.73,15.2.94.41,1.91.8,2.94,1.21,5.52,2.19,11.23,4.46,11.23,10.73,0,4.24-3.53,10.51-11.09,10.51-5.27,0-10.18-2.07-14.58-6.15l-.21-.2-.02.29s-.2,2.92-.02,5.13v.07s.07.04.07.04c2.52,1.46,8.06,2.93,14.76,2.93,12.79,0,17.33-7.68,17.33-14.25,0-9.07-7.34-13.05-14.22-16.06"/>
      <path class="cls-2" d="m242.13,73.26c-8.53,0-13.01.48-17.12,1.2l-.12.02v.41c.01.05,1.17,5.21,1.17,13.58v35.97s3.9-.1,7.29-.06c2.24.03,5.02.06,9,.06,14.1,0,26.83-11.46,26.83-25.54,0-6.88-2.61-13.27-7.34-17.98-4.95-4.93-11.95-7.64-19.72-7.64m-9.98,2.81c.52-.14,2.86-.7,7.35-.7,14.09,0,23.2,9.24,23.2,23.53,0,13.52-8.32,22.98-20.26,23.06h-9.86v-33.49c0-8.1-.35-11.72-.43-12.4"/>
      <path class="cls-2" d="m315.45,104.9c0,6.68-.94,11.38-2.88,14.37-1.96,3.03-5.07,4.51-9.52,4.51-9.83,0-14.21-5.82-14.21-18.88v-16.44c0-7.07-.74-13.56-.75-13.62v-.12h-6.96l.05.18s1.17,4.46,1.17,13.57l-.03,16.44c0,13.92,6.67,20.98,19.83,20.98s19.78-6.67,19.78-20.98v-30.19h-6.49v30.19Z"/>
    </g>
    <g>
      <path class="cls-2" d="m391.68,104.9c0,12.86-4.41,19.11-13.49,19.11-10.31,0-15.31-6.25-15.31-19.11v-16.44c0-7.08-.74-13.57-.75-13.64l-.03-.25h-6.01l.1.35s1.16,4.45,1.16,13.53l-.03,16.44c0,14.01,6.72,21.12,19.97,21.12s19.92-6.71,19.92-21.12v-30.33h-5.53v30.33Z"/>
      <path class="cls-2" d="m436.49,116.36v-16.79c0-7.2-5.99-12.85-13.64-12.85-4.09,0-7.98,1.82-10.78,5.01v-4.28h-.28c-2.47,0-6.15.34-6.19.34l-.25.02v.65l-.02.12.1.08s1.09,1.26,1.09,9.99v25.91h5.55v-29.84c2.26-3.81,5.71-5.99,9.46-5.99,6.33,0,9.41,4.33,9.41,13.25v22.57h6.83l-.15-.38s-1.13-2.93-1.13-7.82"/>
      <path class="cls-2" d="m444.57,88.53c.01.05,1.17,5.2,1.17,13.54v22.49h5.53v-36.38h-6.78l.08.34Z"/>
      <path class="cls-2" d="m448.5,74.58c-2.04,0-3.7,1.66-3.7,3.7s1.66,3.7,3.7,3.7,3.7-1.66,3.7-3.7-1.66-3.7-3.7-3.7"/>
      <path class="cls-2" d="m485.4,88.52s.33,1.63,0,4.27c-.3,2.37-1.06,4.89-2.47,8.16-5.81,13.54-6.38,14.72-6.79,15.58-.13.27-.25.51-.5,1.07-1.44-3.26-4.41-10-7.29-16.68-3.39-7.89-4.04-11.56-3.57-12.31l.27-.43h-8.4l.18.4c.03.06,2.76,6.1,5.6,12.57.55,1.25,1.9,4.37,3.53,8.16,2.32,5.37,5.21,12.06,7.18,16.56l.07.17h2.08l10.63-24.85c3.61-8.45,5.73-12.54,5.75-12.58l.21-.41h-6.57l.07.34Z"/>
      <path class="cls-2" d="m513.75,86.73c-10.84,0-19.65,8.82-19.65,19.65s8.82,19.65,19.65,19.65c9.74,0,14.69-5.43,14.74-5.49l.06-.07v-.09c.14-1.69.01-4.92,0-5.06l-.04-1.06-.49.94c-1.58,3.07-7.4,8.81-14.28,8.81-7.36,0-13.82-8.24-13.82-17.63,0-.1,0-.19,0-.29h20.61c5.19-.04,9.23-1.14,9.27-1.15l.19-.05.06-.61c.1-1.04.15-1.57.15-3,0-8.02-7.38-14.55-16.46-14.55m-.54,2.02h.11c3.27.02,6.11,1.32,8.22,3.74,2.4,2.77,3.52,6.76,3,10.7-.56.2-2.61.88-5.03.88h-19.47c.83-9.04,6.22-15.32,13.17-15.32"/>
      <path class="cls-2" d="m553.24,86.73h-.28c-3.74,0-6.91,1.64-9.41,4.9v-4.17h-.28c-2.47,0-6.15.34-6.19.34l-.25.02v.77s.09.09.09.09c.04.05,1.09,1.26,1.09,9.99v25.91h5.55v-26.28c.01-5.52,4.84-8.09,8.1-8.09,3.05,0,5.16,1.7,6.13,3.29l.22.35.25-.33c.06-.08,1.52-2.06,2.22-4.99l.05-.22-.21-.1c-1.89-.88-4.57-1.44-7.07-1.48"/>
      <path class="cls-2" d="m578.42,102.9l-.39-.17-.41-.18c-4.59-1.98-7.9-3.41-7.9-7.41.08-4.01,3.8-6.41,7.35-6.41s7.05,2.29,8.22,4.42l.44.8.09-.9c.16-1.7.02-4.49,0-4.61v-.17s-.16-.07-.16-.07c-1.96-.92-4.77-1.49-7.35-1.49-8.81,0-13.56,4.75-13.56,9.22,0,4.81,2.53,8.01,8.48,10.69.53.24,1.07.47,1.61.71,4.67,2.03,9.51,4.14,9.53,9.03.01,1.84-.81,3.79-2.21,5.2-1.11,1.11-3.1,2.44-6.33,2.44-6.81,0-11.44-7.91-11.95-8.82l-.47-.84-.05.97c0,.13-.16,3.17,0,5.07v.07s.05.06.05.06c.04.05,3.91,5.52,12.43,5.52,4.63,0,8.36-1.3,10.78-3.77,1.94-1.98,2.99-4.64,2.94-7.5,0-6.49-5.5-9.43-11.13-11.87"/>
      <path class="cls-2" d="m599.55,74.58c-2.04,0-3.7,1.66-3.7,3.7s1.66,3.7,3.7,3.7,3.7-1.66,3.7-3.7-1.66-3.7-3.7-3.7"/>
      <path class="cls-2" d="m595.61,88.53c.01.05,1.17,5.2,1.17,13.54v22.49h5.53v-36.38h-6.78l.08.34Z"/>
      <path class="cls-2" d="m618.31,79.85l-3.07,1.29v.19c0,3.78-3.04,6.86-6.76,6.86h-.24l-.36,2.02h.33s2.08.05,4.54.05v20.43c0,10.66,2.27,13.74,7.38,16.61l.1.06.11-.03c1.54-.45,2.51-1.24,2.55-1.28l.39-.32-.48-.16c-.18-.06-4.51-1.59-4.51-9.22v-25.87c2.22.22,3.59.56,5.05.92l.4.1.09-.22s.46-1.09.48-2.69l.4-.4h-6.4v-8.34Z"/>
      <path class="cls-2" d="m655.23,88.18l.07.34s.33,1.63,0,4.27c-.3,2.38-1.06,4.9-2.46,8.16-5.82,13.56-6.38,14.73-6.79,15.58-.13.27-.25.51-.5,1.07-1.44-3.25-4.41-10-7.28-16.68-3.39-7.9-4.05-11.57-3.57-12.31l.27-.43h-8.4l.18.4c.03.06,2.76,6.1,5.6,12.57.54,1.23,1.87,4.31,3.48,8.04,2.12,4.9,4.72,10.93,6.67,15.4l-1.38,3.15c-1.65,3.78-5.93,7.4-9.97,8.42l-.56.14.46.35c.1.08,2.56,1.95,5.61,2.8l.14.04.11-.1c2.75-2.39,5.56-6.94,8.37-13.53l10.56-24.68c3.61-8.45,5.73-12.54,5.75-12.58l.21-.41h-6.56Z"/>
    </g>
  </g>
  <g>
    <path class="cls-2" d="m179.89,40.15V12.93h10.24c2.05,0,3.83.32,5.33.94,1.5.63,2.67,1.62,3.5,2.98s1.25,3.14,1.25,5.35-.46,3.86-1.39,5.27c-.92,1.41-2.18,2.47-3.77,3.18-1.59.71-3.41,1.06-5.47,1.06h-4.89v8.43h-4.81Zm4.81-12.75h4.81c1.77,0,3.2-.42,4.27-1.27s1.62-2.18,1.62-4.01c0-1.59-.45-2.79-1.35-3.6-.9-.81-2.28-1.21-4.16-1.21h-5.2v10.09Z"/>
    <path class="cls-2" d="m217.43,40.46c-2.8,0-5.18-.59-7.14-1.77-1.96-1.18-3.47-2.82-4.51-4.93-1.04-2.11-1.56-4.51-1.56-7.2s.53-5.17,1.58-7.26c1.05-2.09,2.57-3.73,4.54-4.93s4.36-1.79,7.16-1.79,5.18.59,7.14,1.77c1.96,1.18,3.47,2.82,4.52,4.91,1.05,2.09,1.58,4.5,1.58,7.22s-.52,5.1-1.56,7.2c-1.04,2.11-2.55,3.76-4.54,4.97-1.99,1.21-4.4,1.81-7.22,1.81Zm.08-4.47c1.95,0,3.54-.45,4.77-1.35,1.23-.9,2.14-2.07,2.71-3.5.58-1.44.87-2.97.87-4.58,0-1.23-.16-2.41-.48-3.54-.32-1.13-.82-2.14-1.5-3.04-.68-.9-1.55-1.61-2.6-2.14s-2.31-.79-3.77-.79c-1.93,0-3.51.45-4.76,1.35-1.25.9-2.16,2.07-2.75,3.5-.59,1.44-.89,2.99-.89,4.66s.29,3.18.89,4.62c.59,1.44,1.51,2.6,2.75,3.48s2.83,1.33,4.76,1.33Z"/>
    <path class="cls-2" d="m240.22,40.15l-6.93-27.22h5.39l5.24,22.22,5.16-22.22h6.55l5.16,22.22,5.16-22.22h5.12l-6.89,27.22h-6.78l-5.12-21.79-5.16,21.79h-6.89Z"/>
    <path class="cls-2" d="m275.38,40.15V12.93h19.21v4.39h-14.4v7.16h12.51v4.31h-12.51v6.97h14.4v4.39h-19.21Z"/>
    <path class="cls-2" d="m300.14,40.15V12.93h10.74c1.39,0,2.7.13,3.93.41,1.23.27,2.32.73,3.27,1.38s1.69,1.55,2.23,2.68c.54,1.13.81,2.53.81,4.2,0,1.39-.24,2.61-.73,3.66s-1.16,1.94-2.02,2.66c-.86.72-1.88,1.27-3.06,1.66l5.97,10.59h-5.39l-5.35-9.82h-5.58v9.82h-4.81Zm4.81-14.09h5.27c.87,0,1.67-.07,2.41-.21s1.37-.38,1.93-.71c.55-.33.97-.79,1.27-1.37.3-.58.46-1.31.48-2.21,0-1.08-.23-1.93-.67-2.54-.45-.62-1.09-1.05-1.93-1.31s-1.83-.39-2.98-.39h-5.78v8.74Z"/>
    <path class="cls-2" d="m327.24,40.15V12.93h19.21v4.39h-14.4v7.16h12.51v4.31h-12.51v6.97h14.4v4.39h-19.21Z"/>
    <path class="cls-2" d="m352,40.15V12.93h10.05c2.85,0,5.26.55,7.24,1.64,1.98,1.09,3.48,2.66,4.52,4.7,1.04,2.04,1.56,4.49,1.56,7.33s-.51,5.21-1.52,7.24c-1.01,2.03-2.51,3.59-4.49,4.68-1.98,1.09-4.4,1.64-7.28,1.64h-10.09Zm4.81-4.39h5.16c2.03,0,3.66-.39,4.91-1.18,1.25-.78,2.16-1.86,2.73-3.23.58-1.38.87-2.97.87-4.79s-.28-3.35-.85-4.74c-.57-1.38-1.47-2.48-2.71-3.29-1.25-.81-2.88-1.21-4.91-1.21h-5.2v18.44Z"/>
    <path class="cls-2" d="m392.58,40.15V12.93h11.17c1.26,0,2.42.11,3.48.33,1.07.22,1.99.6,2.77,1.13.78.54,1.39,1.26,1.83,2.16.44.9.65,2.02.65,3.35,0,1.23-.28,2.35-.85,3.37-.57,1.01-1.4,1.78-2.5,2.29,1.49.38,2.63,1.12,3.43,2.21s1.19,2.51,1.19,4.25c0,1.57-.29,2.87-.87,3.91-.58,1.04-1.37,1.87-2.39,2.48-1.01.62-2.19,1.06-3.52,1.33-1.34.27-2.76.41-4.27.41h-10.13Zm4.81-15.83h5.08c.8,0,1.51-.08,2.16-.23.64-.15,1.19-.39,1.66-.71.46-.32.82-.72,1.08-1.19s.38-1.06.38-1.75c0-.9-.2-1.57-.61-2.02-.41-.45-.97-.74-1.68-.89s-1.5-.21-2.37-.21h-5.7v7.01Zm0,11.44h5.74c.72,0,1.42-.05,2.12-.16.69-.1,1.32-.28,1.89-.54.56-.26,1.01-.64,1.33-1.14.32-.5.48-1.15.48-1.94,0-.72-.13-1.31-.38-1.77-.26-.46-.61-.83-1.06-1.1-.45-.27-.98-.46-1.6-.58-.61-.12-1.26-.17-1.92-.17h-6.59v7.39Z"/>
    <path class="cls-2" d="m426.2,40.15v-10.17l-9.97-17.06h5.58l6.85,12.48,6.85-12.48h5.47l-9.97,17.02v10.2h-4.81Z"/>
  </g>
</svg>